<?xml version="1.0" standalone="yes"?>
<svg xmlns="http://www.w3.org/2000/svg" width="116" height="98">
<path style="fill:#010101; stroke:none;" d="M0 0L0 29L1 29C8.55249 18.8653 21.7244 24.6106 20 37C33.975 46.2071 44.6092 34.4893 48.348 20C50.4057 12.0255 45.6182 7.66449 53 1L36 0L0 0z"/>
<path style="fill:#1181e9; stroke:none;" d="M20 37C22.4061 25.8951 7.34237 16.487 1.17901 28.044C-4.4452 38.59 8.71762 42.9208 11.9992 51.0008C14.6076 57.4232 17.0257 71.7638 22.6991 75.9722C26.2633 78.6161 34.7573 77 39 77L78 77C82.0383 77 89.8973 78.4969 93.3009 75.9722C100.293 70.7858 101.38 54.6027 105.708 47.1327C108.063 43.0688 113.425 42.4834 115.258 37.9568C116.865 33.9875 116.092 28.3554 112.772 25.5139C95.5512 10.7781 96.0846 53.9427 79.1736 36.8951C74.4786 32.1621 69.4415 24.6352 67.561 18.1698C65.5071 11.1086 70.7725 1.22923 59 0.113426C44.9533 -1.21794 49.8743 11.1233 48.2693 19C46.877 25.8326 38.6072 40.4586 31 41.3526C27.2119 41.7978 23.2723 38.5274 20 37z"/>
<path style="fill:#010101; stroke:none;" d="M62 0L62 1C69.5293 6.6109 65.6118 10.5051 67.1752 18C68.6856 25.241 75.6778 36.1994 82.0147 39.9869C97.3715 49.1656 99.0462 7.8716 115 29L116 29L116 0L62 0z"/>
<path style="fill:#63adf1; stroke:none;" d="M55 6L54 8L55 6z"/>
<path style="fill:#f4f9fe; stroke:none;" d="M56.3179 7.08642C52.5599 9.25609 55.924 15.0833 59.6821 12.9136C63.4401 10.7439 60.076 4.91669 56.3179 7.08642z"/>
<path style="fill:#63adf1; stroke:none;" d="M60 6L61 7L60 6M61 7L62 8L61 7M54 12L55 13L54 12M61 12L62 13L61 12M55 13L56 14L55 13M60 13L61 14L60 13z"/>
<path style="fill:#f4f9fe; stroke:none;" d="M8.44444 30.0864C4.93172 32.2207 7.98755 38.0924 11.6929 35.9136C15.356 33.7596 12.1092 27.8597 8.44444 30.0864z"/>
<path style="fill:#63adf1; stroke:none;" d="M12 29L13 30L12 29M104 29L105 30L104 29z"/>
<path style="fill:#f4f9fe; stroke:none;" d="M105.21 29.9707C101.118 31.0339 102.741 37.3505 106.87 36.2485C111.008 35.1441 109.343 28.8968 105.21 29.9707z"/>
<path style="fill:#63adf1; stroke:none;" d="M107 29L108 30L107 29M13 30L14 31L13 30M6 31L7 32L6 31M102 31L103 32L102 31M14.3333 32.6667L14.6667 33.3333L14.3333 32.6667M6 34L7 35L6 34M13 35L14 36L13 35M102 35L103 36L102 35M109 35L110 36L109 35M12 36L13 37L12 36M103 36L104 37L103 36M108 36L109 37L108 36M105.667 37.3333L106.333 37.6667L105.667 37.3333z"/>
<path style="fill:#010101; stroke:none;" d="M0 38L0 98L17 98L17 85L99 85L99 98L116 98L116 38L115 38C112.19 41.579 107.366 43.1073 105.244 47.1327C101.049 55.0885 99.9118 69.2051 93.3009 75.3966C89.8594 78.6198 81.366 77 77 77L39 77C34.7135 77 27.1423 78.4357 23.4182 75.9722C18.57 72.7651 16.2656 61.2602 14.3187 56C10.9649 46.9385 7.55418 43.6989 0 38z"/>
<path style="fill:#0f499b; stroke:none;" d="M17 85L17 98L99 98L99 85L17 85z"/>
</svg>
