<svg width="16" height="16" viewBox="0 0 16 16" fill="none" xmlns="http://www.w3.org/2000/svg">
<circle cx="8" cy="8" r="8" fill="#BD8A11"/>
<circle cx="8" cy="8" r="7" fill="#FFBE26"/>
<path d="M9.80664 9.19336H11.418C11.375 9.76367 11.2168 10.2695 10.9434 10.7109C10.6699 11.1484 10.2891 11.4922 9.80078 11.7422C9.3125 11.9922 8.7207 12.1172 8.02539 12.1172C7.49023 12.1172 7.00781 12.0234 6.57812 11.8359C6.15234 11.6445 5.78711 11.373 5.48242 11.0215C5.18164 10.666 4.95117 10.2402 4.79102 9.74414C4.63086 9.24414 4.55078 8.68359 4.55078 8.0625V7.41211C4.55078 6.79102 4.63281 6.23047 4.79688 5.73047C4.96094 5.23047 5.19531 4.80469 5.5 4.45312C5.80859 4.09766 6.17773 3.82422 6.60742 3.63281C7.04102 3.44141 7.52539 3.3457 8.06055 3.3457C8.75586 3.3457 9.34375 3.47461 9.82422 3.73242C10.3047 3.98633 10.6777 4.33594 10.9434 4.78125C11.209 5.22656 11.3691 5.73828 11.4238 6.31641H9.8125C9.78125 5.95703 9.70312 5.65234 9.57812 5.40234C9.45703 5.15234 9.27344 4.96289 9.02734 4.83398C8.78516 4.70117 8.46289 4.63477 8.06055 4.63477C7.74805 4.63477 7.47266 4.69336 7.23438 4.81055C7 4.92773 6.80469 5.10352 6.64844 5.33789C6.49219 5.56836 6.375 5.85742 6.29688 6.20508C6.21875 6.54883 6.17969 6.94727 6.17969 7.40039V8.0625C6.17969 8.49609 6.21484 8.88477 6.28516 9.22852C6.35547 9.57227 6.46484 9.86328 6.61328 10.1016C6.76172 10.3398 6.95312 10.5215 7.1875 10.6465C7.42188 10.7715 7.70117 10.834 8.02539 10.834C8.41992 10.834 8.74023 10.7715 8.98633 10.6465C9.23633 10.5215 9.42578 10.3379 9.55469 10.0957C9.6875 9.85352 9.77148 9.55273 9.80664 9.19336Z" fill="#BD8A11"/>
</svg>
