<svg width="20" height="19" viewBox="0 0 20 19" fill="none" xmlns="http://www.w3.org/2000/svg">
<path d="M19.0707 7.93676C19.1637 7.48057 18.7919 6.93314 18.3273 6.93314L13.0301 6.20324L10.6138 1.45889C10.5209 1.27641 10.428 1.18517 10.2421 1.09394C9.77744 0.820222 9.21984 1.0027 8.94104 1.45889L6.61771 6.20324L1.32053 6.93314C1.04173 6.93314 0.855863 7.02438 0.76293 7.20686C0.391198 7.57181 0.391198 8.11923 0.76293 8.48418L4.57319 12.1337L3.64386 17.3342C3.64386 17.5167 3.64386 17.6992 3.73679 17.8817C4.01559 18.3378 4.57319 18.5203 5.03785 18.2466L9.77744 15.7832L14.517 18.2466C14.61 18.3378 14.7958 18.3379 14.9817 18.3379C15.0746 18.3379 15.0746 18.3379 15.1676 18.3379C15.6322 18.2466 16.004 17.7904 15.911 17.243L14.9817 12.0425L18.7919 8.39295C18.9778 8.30171 19.0707 8.11923 19.0707 7.93676Z" fill="#FFBE26"/>
</svg>
