<svg width="20" height="21" viewBox="0 0 20 21" fill="none" xmlns="http://www.w3.org/2000/svg">
<path d="M13.71 10.8427C14.6904 10.0714 15.406 9.01361 15.7572 7.81664C16.1085 6.61966 16.0779 5.34296 15.6698 4.16416C15.2617 2.98536 14.4963 1.96309 13.4801 1.23955C12.4639 0.516012 11.2474 0.127197 10 0.127197C8.75255 0.127197 7.53611 0.516012 6.51993 1.23955C5.50374 1.96309 4.73834 2.98536 4.33021 4.16416C3.92208 5.34296 3.89151 6.61966 4.24276 7.81664C4.59401 9.01361 5.3096 10.0714 6.29 10.8427C4.61007 11.5157 3.14428 12.632 2.04889 14.0726C0.953495 15.5132 0.26956 17.224 0.0699967 19.0227C0.0555513 19.154 0.0671132 19.2869 0.104022 19.4137C0.140931 19.5406 0.202464 19.6589 0.285108 19.762C0.452016 19.9702 0.69478 20.1035 0.959997 20.1327C1.22521 20.1619 1.49116 20.0845 1.69932 19.9176C1.90749 19.7507 2.04082 19.5079 2.07 19.2427C2.28958 17.2879 3.22168 15.4825 4.68822 14.1715C6.15475 12.8605 8.0529 12.1357 10.02 12.1357C11.9871 12.1357 13.8852 12.8605 15.3518 14.1715C16.8183 15.4825 17.7504 17.2879 17.97 19.2427C17.9972 19.4884 18.1144 19.7153 18.2991 19.8797C18.4838 20.0441 18.7228 20.1342 18.97 20.1327H19.08C19.3421 20.1025 19.5817 19.97 19.7466 19.7639C19.9114 19.5579 19.9881 19.2951 19.96 19.0327C19.7595 17.2289 19.0719 15.5137 17.9708 14.0709C16.8698 12.6281 15.3969 11.5122 13.71 10.8427ZM10 10.1327C9.20887 10.1327 8.43551 9.8981 7.77772 9.45857C7.11992 9.01905 6.60723 8.39433 6.30448 7.66343C6.00173 6.93252 5.92251 6.12826 6.07686 5.35233C6.2312 4.57641 6.61216 3.86368 7.17157 3.30427C7.73098 2.74486 8.44371 2.36389 9.21964 2.20955C9.99556 2.05521 10.7998 2.13442 11.5307 2.43718C12.2616 2.73993 12.8863 3.25262 13.3259 3.91041C13.7654 4.56821 14 5.34157 14 6.13269C14 7.19356 13.5786 8.21097 12.8284 8.96112C12.0783 9.71127 11.0609 10.1327 10 10.1327Z" fill="#7B8D9E"/>
</svg>
