<svg width="18" height="21" viewBox="0 0 18 21" fill="none" xmlns="http://www.w3.org/2000/svg">
<path d="M17 6.1327L11 0.872697C10.45 0.380742 9.73794 0.108765 9 0.108765C8.26207 0.108765 7.55003 0.380742 7 0.872697L1 6.1327C0.682372 6.41677 0.428903 6.76525 0.256475 7.15494C0.084047 7.54463 -0.00338411 7.96658 3.24138e-06 8.3927V17.1327C3.24138e-06 17.9283 0.316074 18.6914 0.878683 19.254C1.44129 19.8166 2.20435 20.1327 3 20.1327H15C15.7957 20.1327 16.5587 19.8166 17.1213 19.254C17.6839 18.6914 18 17.9283 18 17.1327V8.3827C18.002 7.95826 17.9139 7.53824 17.7415 7.15038C17.5691 6.76252 17.3164 6.41565 17 6.1327ZM11 18.1327H7V13.1327C7 12.8675 7.10536 12.6131 7.2929 12.4256C7.48043 12.2381 7.73479 12.1327 8 12.1327H10C10.2652 12.1327 10.5196 12.2381 10.7071 12.4256C10.8946 12.6131 11 12.8675 11 13.1327V18.1327ZM16 17.1327C16 17.3979 15.8946 17.6523 15.7071 17.8398C15.5196 18.0273 15.2652 18.1327 15 18.1327H13V13.1327C13 12.337 12.6839 11.574 12.1213 11.0114C11.5587 10.4488 10.7957 10.1327 10 10.1327H8C7.20435 10.1327 6.44129 10.4488 5.87868 11.0114C5.31607 11.574 5 12.337 5 13.1327V18.1327H3C2.73479 18.1327 2.48043 18.0273 2.2929 17.8398C2.10536 17.6523 2 17.3979 2 17.1327V8.3827C2.00018 8.24071 2.0306 8.10039 2.08922 7.97108C2.14784 7.84176 2.23333 7.72641 2.34 7.6327L8.34 2.3827C8.52249 2.22238 8.7571 2.13396 9 2.13396C9.24291 2.13396 9.47751 2.22238 9.66 2.3827L15.66 7.6327C15.7667 7.72641 15.8522 7.84176 15.9108 7.97108C15.9694 8.10039 15.9998 8.24071 16 8.3827V17.1327Z" fill="#7B8D9E"/>
</svg>
