<svg width="22" height="20" viewBox="0 0 22 20" fill="none" xmlns="http://www.w3.org/2000/svg">
<path d="M18.7 3.29936H15.4V2.2438C15.4 1.6839 15.1682 1.14693 14.7556 0.75102C14.3431 0.35511 13.7835 0.13269 13.2 0.13269H8.8C8.21652 0.13269 7.65695 0.35511 7.24437 0.75102C6.83179 1.14693 6.6 1.6839 6.6 2.2438V3.29936H3.3C2.42479 3.29936 1.58542 3.63299 0.966548 4.22685C0.347678 4.82072 0 5.62617 0 6.46602V15.966C0 16.8059 0.347678 17.6113 0.966548 18.2052C1.58542 18.7991 2.42479 19.1327 3.3 19.1327H18.7C19.5752 19.1327 20.4146 18.7991 21.0335 18.2052C21.6523 17.6113 22 16.8059 22 15.966V6.46602C22 5.62617 21.6523 4.82072 21.0335 4.22685C20.4146 3.63299 19.5752 3.29936 18.7 3.29936ZM8.8 2.2438H13.2V3.29936H8.8V2.2438ZM19.8 15.966C19.8 16.246 19.6841 16.5145 19.4778 16.7124C19.2715 16.9104 18.9917 17.0216 18.7 17.0216H3.3C3.00826 17.0216 2.72847 16.9104 2.52218 16.7124C2.31589 16.5145 2.2 16.246 2.2 15.966V10.6882H6.6V11.7438C6.6 12.0238 6.71589 12.2922 6.92218 12.4902C7.12847 12.6881 7.40826 12.7994 7.7 12.7994C7.99174 12.7994 8.27153 12.6881 8.47782 12.4902C8.68411 12.2922 8.8 12.0238 8.8 11.7438V10.6882H13.2V11.7438C13.2 12.0238 13.3159 12.2922 13.5222 12.4902C13.7285 12.6881 14.0083 12.7994 14.3 12.7994C14.5917 12.7994 14.8715 12.6881 15.0778 12.4902C15.2841 12.2922 15.4 12.0238 15.4 11.7438V10.6882H19.8V15.966ZM19.8 8.57714H2.2V6.46602C2.2 6.18607 2.31589 5.91759 2.52218 5.71963C2.72847 5.52168 3.00826 5.41047 3.3 5.41047H18.7C18.9917 5.41047 19.2715 5.52168 19.4778 5.71963C19.6841 5.91759 19.8 6.18607 19.8 6.46602V8.57714Z" fill="#7B8D9E"/>
</svg>
