<?xml version="1.0" standalone="yes"?>
<svg xmlns="http://www.w3.org/2000/svg" width="88" height="76">
<path style="fill:#010101; stroke:none;" d="M0 0L0 20L1 20C7.41161 11.117 16.0843 12 26 12C26.1186 7.09497 27.0884 4.10073 31 1L0 0z"/>
<path style="fill:#1583e5; stroke:none;" d="M26 12C9.39574 12 0 13.3311 0 32L88 32C88 13.3311 78.6043 12 62 12C61.8389 -5.79708 26.1611 -5.79708 26 12z"/>
<path style="fill:#010101; stroke:none;" d="M57 0L57 1C60.9116 4.10074 61.8814 7.09496 62 12C71.9157 12 80.5884 11.117 87 20L88 20L88 0L57 0M36 9L36 12L52 12L52 9L36 9z"/>
<path style="fill:#0f499b; stroke:none;" d="M0 32L0 40L24 40C24.0087 53.1606 31.9913 53.1606 32 40L56 40C56.0087 53.1606 63.9913 53.1606 64 40L88 40L88 32L0 32z"/>
<path style="fill:#1583e5; stroke:none;" d="M0 40C0 48.7555 -3.30535 65.9061 3.39429 72.6057C8.09812 77.3095 15.9569 76 22 76L66 76C72.0431 76 79.9019 77.3095 84.6057 72.6057C91.3054 65.9061 88 48.7555 88 40L64 40C63.9985 53.4231 56.0015 53.423 56 40L32 40C31.9985 53.423 24.0015 53.423 24 40L0 40z"/>
<path style="fill:#1159b0; stroke:none;" d="M24 49L25 50L24 49M31 49L32 50L31 49M56 49L57 50L56 49M63 49L64 50L63 49z"/>
<path style="fill:#157cdd; stroke:none;" d="M24 50L25 51L24 50M31 50L32 51L31 50M56 50L57 51L56 50M63 50L64 51L63 50M25 51L26 52L25 51z"/>
<path style="fill:#1159b0; stroke:none;" d="M26 51L27 52L26 51M29 51L30 52L29 51z"/>
<path style="fill:#157cdd; stroke:none;" d="M30 51L31 52L30 51M57 51L58 52L57 51z"/>
<path style="fill:#1159b0; stroke:none;" d="M58 51L59 52L58 51M61 51L62 52L61 51z"/>
<path style="fill:#157cdd; stroke:none;" d="M62 51L63 52L62 51z"/>
<path style="fill:#010101; stroke:none;" d="M0 68L0 76L8 76L8 75L0 68M87 68L80 75L80 76L88 76L87 68z"/>
</svg>
