<svg width="28" height="29" viewBox="0 0 28 29" fill="none" xmlns="http://www.w3.org/2000/svg">
<path d="M19.194 6.13855L11.774 13.5584L8.80603 10.5905C8.68052 10.4439 8.52608 10.3249 8.35239 10.2409C8.1787 10.1568 7.98951 10.1096 7.7967 10.1022C7.6039 10.0947 7.41163 10.1272 7.23198 10.1976C7.05232 10.268 6.88916 10.3747 6.75272 10.5112C6.61628 10.6476 6.50952 10.8108 6.43914 10.9904C6.36875 11.1701 6.33627 11.3623 6.34371 11.5551C6.35116 11.7479 6.39838 11.9371 6.48241 12.1108C6.56645 12.2845 6.68548 12.439 6.83203 12.5645L10.794 16.5264C11.0548 16.785 11.4068 16.9308 11.774 16.9324C11.9583 16.9335 12.1409 16.8981 12.3115 16.8285C12.4821 16.7588 12.6372 16.6562 12.768 16.5264L21.168 8.12652C21.2993 7.99637 21.4034 7.84153 21.4745 7.67093C21.5456 7.50033 21.5821 7.31735 21.5821 7.13253C21.5821 6.94772 21.5456 6.76473 21.4745 6.59413C21.4034 6.42353 21.2993 6.26869 21.168 6.13855C20.9057 5.8778 20.5509 5.73144 20.181 5.73144C19.8112 5.73144 19.4563 5.8778 19.194 6.13855ZM23.8 0.132629H4.20003C3.08612 0.132629 2.01783 0.575122 1.23018 1.36276C0.442529 2.15041 3.05176e-05 3.21868 3.05176e-05 4.33257V18.3324C3.05176e-05 19.4463 0.442529 20.5145 1.23018 21.3022C2.01783 22.0898 3.08612 22.5323 4.20003 22.5323H20.426L25.606 27.7262C25.7368 27.856 25.892 27.9587 26.0626 28.0283C26.2331 28.098 26.4158 28.1333 26.6 28.1322C26.7837 28.137 26.9659 28.0986 27.132 28.0202C27.3877 27.9152 27.6066 27.7369 27.761 27.5077C27.9155 27.2785 27.9986 27.0087 28 26.7323V4.33257C28 3.21868 27.5575 2.15041 26.7699 1.36276C25.9822 0.575122 24.9139 0.132629 23.8 0.132629ZM25.2 23.3583L21.994 20.1384C21.8632 20.0086 21.7081 19.9059 21.5375 19.8363C21.3669 19.7666 21.1843 19.7313 21 19.7324H4.20003C3.82873 19.7324 3.47263 19.5849 3.21008 19.3223C2.94753 19.0598 2.80003 18.7037 2.80003 18.3324V4.33257C2.80003 3.96127 2.94753 3.60518 3.21008 3.34264C3.47263 3.08009 3.82873 2.93259 4.20003 2.93259H23.8C24.1713 2.93259 24.5274 3.08009 24.79 3.34264C25.0525 3.60518 25.2 3.96127 25.2 4.33257V23.3583Z" fill="white"/>
</svg>
